<svg width="40" height="19" viewBox="0 0 40 19" fill="none" xmlns="http://www.w3.org/2000/svg">
<path d="M6.88672 8.49609H11.5742V10.582H6.88672V15.3164H4.80078V10.582H0.125V8.49609H4.80078V3.71484H6.88672V8.49609ZM13.8359 10.6992C13.8359 9.69141 13.9062 8.69922 14.0469 7.72266C14.1953 6.74609 14.4453 5.83203 14.7969 4.98047C15.1484 4.12891 15.6328 3.37891 16.25 2.73047C16.875 2.08203 17.6602 1.57422 18.6055 1.20703C19.5508 0.832031 20.6875 0.644531 22.0156 0.644531C22.3594 0.644531 22.7461 0.660156 23.1758 0.691406C23.6055 0.722656 23.9609 0.773438 24.2422 0.84375V3.12891C23.9375 3.04297 23.6016 2.97656 23.2344 2.92969C22.875 2.88281 22.5156 2.85938 22.1562 2.85938C20.7188 2.85938 19.5977 3.13281 18.793 3.67969C17.9883 4.21875 17.4141 4.96094 17.0703 5.90625C16.7266 6.84375 16.5273 7.91797 16.4727 9.12891H16.6133C16.8477 8.73828 17.1406 8.39062 17.4922 8.08594C17.8438 7.78125 18.2734 7.53906 18.7812 7.35938C19.2891 7.17188 19.8789 7.07812 20.5508 7.07812C21.5508 7.07812 22.4219 7.28906 23.1641 7.71094C23.9062 8.125 24.4766 8.72656 24.875 9.51562C25.2812 10.3047 25.4844 11.2617 25.4844 12.3867C25.4844 13.5977 25.2539 14.6406 24.793 15.5156C24.3398 16.3906 23.6914 17.0625 22.8477 17.5312C22.0117 18 21.0156 18.2344 19.8594 18.2344C19.0078 18.2344 18.2148 18.0781 17.4805 17.7656C16.7539 17.4531 16.1172 16.9844 15.5703 16.3594C15.0234 15.7344 14.5977 14.9531 14.293 14.0156C13.9883 13.0703 13.8359 11.9648 13.8359 10.6992ZM19.8125 15.9609C20.7031 15.9609 21.418 15.6719 21.957 15.0938C22.5039 14.5078 22.7773 13.6133 22.7773 12.4102C22.7773 11.4336 22.5352 10.6602 22.0508 10.0898C21.5742 9.51953 20.8555 9.23438 19.8945 9.23438C19.2383 9.23438 18.6641 9.375 18.1719 9.65625C17.6797 9.9375 17.2969 10.293 17.0234 10.7227C16.7578 11.1523 16.625 11.5898 16.625 12.0352C16.625 12.4883 16.6914 12.9453 16.8242 13.4062C16.957 13.8672 17.1562 14.293 17.4219 14.6836C17.6875 15.0664 18.0195 15.375 18.418 15.6094C18.8164 15.8438 19.2812 15.9609 19.8125 15.9609ZM39.1484 9.42188C39.1484 10.8047 39.0391 12.043 38.8203 13.1367C38.6094 14.2227 38.2734 15.1445 37.8125 15.9023C37.3516 16.6602 36.75 17.2383 36.0078 17.6367C35.2656 18.0352 34.3672 18.2344 33.3125 18.2344C31.9922 18.2344 30.9023 17.8867 30.043 17.1914C29.1836 16.4883 28.5469 15.4805 28.1328 14.168C27.7188 12.8477 27.5117 11.2656 27.5117 9.42188C27.5117 7.57812 27.6992 6 28.0742 4.6875C28.457 3.36719 29.0742 2.35547 29.9258 1.65234C30.7773 0.949219 31.9062 0.597656 33.3125 0.597656C34.6406 0.597656 35.7344 0.949219 36.5938 1.65234C37.4609 2.34766 38.1016 3.35547 38.5156 4.67578C38.9375 5.98828 39.1484 7.57031 39.1484 9.42188ZM30.2891 9.42188C30.2891 10.8672 30.3828 12.0742 30.5703 13.043C30.7656 14.0117 31.0859 14.7383 31.5312 15.2227C31.9766 15.6992 32.5703 15.9375 33.3125 15.9375C34.0547 15.9375 34.6484 15.6992 35.0938 15.2227C35.5391 14.7461 35.8594 14.0234 36.0547 13.0547C36.2578 12.0859 36.3594 10.875 36.3594 9.42188C36.3594 7.98438 36.2617 6.78125 36.0664 5.8125C35.8711 4.84375 35.5508 4.11719 35.1055 3.63281C34.6602 3.14062 34.0625 2.89453 33.3125 2.89453C32.5625 2.89453 31.9648 3.14062 31.5195 3.63281C31.082 4.11719 30.7656 4.84375 30.5703 5.8125C30.3828 6.78125 30.2891 7.98438 30.2891 9.42188Z" fill="white"/>
</svg>
