<svg width="134" height="24" viewBox="0 0 134 24" fill="none" xmlns="http://www.w3.org/2000/svg">
<path fill-rule="evenodd" clip-rule="evenodd" d="M15.6614 12.0531C15.6614 13.7991 14.2454 15.2141 12.4994 15.2141C10.7534 15.2141 9.33838 13.7991 9.33838 12.0531C9.33838 10.3061 10.7534 8.8911 12.4994 8.8911C14.2454 8.8911 15.6614 10.3061 15.6614 12.0531Z" stroke="white" stroke-width="1.5" stroke-linecap="round" stroke-linejoin="round"/>
<path fill-rule="evenodd" clip-rule="evenodd" d="M12.498 19.3549C16.306 19.3549 19.789 16.6169 21.75 12.0529C19.789 7.4889 16.306 4.7509 12.498 4.7509H12.502C8.694 4.7509 5.211 7.4889 3.25 12.0529C5.211 16.6169 8.694 19.3549 12.502 19.3549H12.498Z" stroke="white" stroke-width="1.5" stroke-linecap="round" stroke-linejoin="round"/>
<path d="M42.1172 18H40.8516V9.90625C40.8516 9.59896 40.8516 9.33594 40.8516 9.11719C40.8568 8.89323 40.862 8.6901 40.8672 8.50781C40.8776 8.32031 40.8906 8.13021 40.9062 7.9375C40.7448 8.10417 40.5938 8.2474 40.4531 8.36719C40.3125 8.48177 40.138 8.625 39.9297 8.79688L38.625 9.84375L37.9453 8.96094L41.0391 6.57812H42.1172V18ZM47.9219 18L52.6094 7.76562H46.3828V6.57812H54V7.57812L49.3438 18H47.9219ZM57.6641 16.1406L57.7656 16.3203C57.6719 16.7005 57.5521 17.1068 57.4062 17.5391C57.2656 17.9714 57.1094 18.4036 56.9375 18.8359C56.7708 19.2734 56.6016 19.6823 56.4297 20.0625H55.4609C55.5703 19.6458 55.6771 19.2057 55.7812 18.7422C55.8854 18.2839 55.9792 17.8307 56.0625 17.3828C56.151 16.9297 56.2214 16.5156 56.2734 16.1406H57.6641ZM63.3516 11.0156C64.1276 11.0156 64.8021 11.1484 65.375 11.4141C65.9479 11.6745 66.3906 12.0547 66.7031 12.5547C67.0208 13.0547 67.1797 13.6615 67.1797 14.375C67.1797 15.1562 67.0104 15.8307 66.6719 16.3984C66.3333 16.9609 65.8464 17.3958 65.2109 17.7031C64.5755 18.0052 63.8151 18.1562 62.9297 18.1562C62.3359 18.1562 61.7839 18.1042 61.2734 18C60.763 17.8958 60.3333 17.7396 59.9844 17.5312V16.2969C60.3646 16.526 60.8255 16.7083 61.3672 16.8438C61.9089 16.9792 62.4349 17.0469 62.9453 17.0469C63.5234 17.0469 64.0286 16.9557 64.4609 16.7734C64.8984 16.5859 65.237 16.3047 65.4766 15.9297C65.7214 15.5495 65.8438 15.0729 65.8438 14.5C65.8438 13.7396 65.6094 13.1536 65.1406 12.7422C64.6771 12.3255 63.9427 12.1172 62.9375 12.1172C62.6146 12.1172 62.2604 12.1432 61.875 12.1953C61.4896 12.2474 61.1719 12.3047 60.9219 12.3672L60.2656 11.9375L60.7031 6.57812H66.3828V7.76562H61.8125L61.5234 11.2109C61.7214 11.1693 61.9766 11.1276 62.2891 11.0859C62.6016 11.0391 62.9557 11.0156 63.3516 11.0156ZM73.7266 18H72.4609V9.90625C72.4609 9.59896 72.4609 9.33594 72.4609 9.11719C72.4661 8.89323 72.4714 8.6901 72.4766 8.50781C72.487 8.32031 72.5 8.13021 72.5156 7.9375C72.3542 8.10417 72.2031 8.2474 72.0625 8.36719C71.9219 8.48177 71.7474 8.625 71.5391 8.79688L70.2344 9.84375L69.5547 8.96094L72.6484 6.57812H73.7266V18ZM85.5391 18H78.0547V16.9141L81.1094 13.8125C81.6771 13.2396 82.1536 12.7292 82.5391 12.2812C82.9297 11.8333 83.2266 11.3932 83.4297 10.9609C83.6328 10.5234 83.7344 10.0443 83.7344 9.52344C83.7344 8.8776 83.5417 8.38542 83.1562 8.04688C82.776 7.70312 82.2734 7.53125 81.6484 7.53125C81.1016 7.53125 80.6172 7.625 80.1953 7.8125C79.7734 8 79.3411 8.26562 78.8984 8.60938L78.2031 7.73438C78.5052 7.47917 78.8333 7.2526 79.1875 7.05469C79.5469 6.85677 79.9297 6.70052 80.3359 6.58594C80.7474 6.47135 81.1849 6.41406 81.6484 6.41406C82.3516 6.41406 82.9583 6.53646 83.4688 6.78125C83.9792 7.02604 84.3724 7.375 84.6484 7.82812C84.9297 8.28125 85.0703 8.82031 85.0703 9.44531C85.0703 10.0495 84.9505 10.612 84.7109 11.1328C84.4714 11.6484 84.1354 12.1615 83.7031 12.6719C83.2708 13.1771 82.7656 13.7135 82.1875 14.2812L79.7031 16.7578V16.8125H85.5391V18ZM100.117 6.57812L96.0156 18H94.6797L90.5781 6.57812H91.9688L94.6406 14.1016C94.75 14.4036 94.8464 14.6927 94.9297 14.9688C95.0182 15.2448 95.0964 15.5104 95.1641 15.7656C95.2318 16.0208 95.2917 16.2682 95.3438 16.5078C95.3958 16.2682 95.4557 16.0208 95.5234 15.7656C95.5911 15.5052 95.6693 15.237 95.7578 14.9609C95.8464 14.6797 95.9453 14.3854 96.0547 14.0781L98.7109 6.57812H100.117ZM102.789 9.4375V18H101.492V9.4375H102.789ZM102.156 6.23438C102.37 6.23438 102.552 6.30469 102.703 6.44531C102.859 6.58073 102.938 6.79427 102.938 7.08594C102.938 7.3724 102.859 7.58594 102.703 7.72656C102.552 7.86719 102.37 7.9375 102.156 7.9375C101.932 7.9375 101.745 7.86719 101.594 7.72656C101.448 7.58594 101.375 7.3724 101.375 7.08594C101.375 6.79427 101.448 6.58073 101.594 6.44531C101.745 6.30469 101.932 6.23438 102.156 6.23438ZM108.836 9.28125C109.565 9.28125 110.19 9.44271 110.711 9.76562C111.232 10.0885 111.63 10.5417 111.906 11.125C112.182 11.7031 112.32 12.3802 112.32 13.1562V13.9609H106.406C106.422 14.9661 106.672 15.7318 107.156 16.2578C107.641 16.7839 108.323 17.0469 109.203 17.0469C109.745 17.0469 110.224 16.9974 110.641 16.8984C111.057 16.7995 111.49 16.6536 111.938 16.4609V17.6016C111.505 17.7943 111.076 17.9349 110.648 18.0234C110.227 18.112 109.727 18.1562 109.148 18.1562C108.326 18.1562 107.607 17.9896 106.992 17.6562C106.383 17.3177 105.909 16.8229 105.57 16.1719C105.232 15.5208 105.062 14.724 105.062 13.7812C105.062 12.8594 105.216 12.0625 105.523 11.3906C105.836 10.7135 106.273 10.1927 106.836 9.82812C107.404 9.46354 108.07 9.28125 108.836 9.28125ZM108.82 10.3438C108.128 10.3438 107.576 10.5703 107.164 11.0234C106.753 11.4766 106.508 12.1094 106.43 12.9219H110.961C110.956 12.4115 110.875 11.9635 110.719 11.5781C110.568 11.1875 110.336 10.8854 110.023 10.6719C109.711 10.4531 109.31 10.3438 108.82 10.3438ZM121.492 17.9844L119.969 13C119.901 12.7865 119.836 12.5781 119.773 12.375C119.716 12.1667 119.661 11.9688 119.609 11.7812C119.562 11.5885 119.518 11.4115 119.477 11.25C119.44 11.0833 119.409 10.9401 119.383 10.8203H119.328C119.307 10.9401 119.279 11.0833 119.242 11.25C119.206 11.4115 119.161 11.5885 119.109 11.7812C119.062 11.974 119.01 12.1771 118.953 12.3906C118.896 12.599 118.831 12.8099 118.758 13.0234L117.164 17.9844H115.703L113.344 9.42188H114.688L115.922 14.1484C116.005 14.4609 116.083 14.7708 116.156 15.0781C116.234 15.3802 116.299 15.6667 116.352 15.9375C116.409 16.2031 116.451 16.4349 116.477 16.6328H116.539C116.57 16.5026 116.604 16.3464 116.641 16.1641C116.682 15.9818 116.727 15.7891 116.773 15.5859C116.826 15.3776 116.88 15.1719 116.938 14.9688C116.995 14.7604 117.052 14.5651 117.109 14.3828L118.688 9.42188H120.086L121.609 14.375C121.688 14.625 121.763 14.8854 121.836 15.1562C121.914 15.4271 121.984 15.6901 122.047 15.9453C122.109 16.1953 122.154 16.4193 122.18 16.6172H122.242C122.263 16.4401 122.302 16.2214 122.359 15.9609C122.417 15.7005 122.482 15.4141 122.555 15.1016C122.633 14.7891 122.714 14.4714 122.797 14.1484L124.047 9.42188H125.367L123 17.9844H121.492ZM132.469 15.6562C132.469 16.2031 132.331 16.6641 132.055 17.0391C131.784 17.4089 131.393 17.6875 130.883 17.875C130.378 18.0625 129.773 18.1562 129.07 18.1562C128.471 18.1562 127.953 18.1094 127.516 18.0156C127.078 17.9219 126.695 17.7891 126.367 17.6172V16.4219C126.716 16.5938 127.133 16.75 127.617 16.8906C128.102 17.0312 128.596 17.1016 129.102 17.1016C129.841 17.1016 130.378 16.9818 130.711 16.7422C131.044 16.5026 131.211 16.1771 131.211 15.7656C131.211 15.5312 131.143 15.3255 131.008 15.1484C130.878 14.9661 130.656 14.7917 130.344 14.625C130.031 14.4531 129.599 14.2656 129.047 14.0625C128.5 13.8542 128.026 13.6484 127.625 13.4453C127.229 13.237 126.922 12.9844 126.703 12.6875C126.49 12.3906 126.383 12.0052 126.383 11.5312C126.383 10.8073 126.674 10.2526 127.258 9.86719C127.846 9.47656 128.617 9.28125 129.57 9.28125C130.086 9.28125 130.568 9.33333 131.016 9.4375C131.469 9.53646 131.891 9.67188 132.281 9.84375L131.844 10.8828C131.49 10.7318 131.112 10.6042 130.711 10.5C130.31 10.3958 129.901 10.3438 129.484 10.3438C128.885 10.3438 128.424 10.4427 128.102 10.6406C127.784 10.8385 127.625 11.1094 127.625 11.4531C127.625 11.7188 127.698 11.9375 127.844 12.1094C127.995 12.2812 128.234 12.4427 128.562 12.5938C128.891 12.7448 129.323 12.9219 129.859 13.125C130.396 13.3229 130.859 13.5286 131.25 13.7422C131.641 13.9505 131.94 14.2057 132.148 14.5078C132.362 14.8047 132.469 15.1875 132.469 15.6562Z" fill="#D7D7D7"/>
</svg>
