<svg width="66" height="66" viewBox="0 0 66 66" fill="none" xmlns="http://www.w3.org/2000/svg">
<path d="M17.4622 38.9397L15.4946 40.1396L10.71 32.294C10.5506 32.0328 10.3941 31.7699 10.2403 31.5052C10.0866 31.2406 9.93621 30.9815 9.78923 30.728C9.64781 30.4711 9.51594 30.2236 9.39364 29.9856C9.35488 30.1846 9.29511 30.4117 9.21432 30.6668C9.13909 30.9186 9.05614 31.1827 8.96546 31.4592L8.2461 33.4306L6.50466 32.7883L8.39437 27.7468L10.0285 26.7502L17.4622 38.9397ZM29.7267 31.4602L21.4726 36.494L20.5726 35.0182L21.78 29.8896C22.0118 28.8941 22.1877 28.051 22.3078 27.3601C22.4245 26.6636 22.4536 26.0549 22.3951 25.5339C22.3422 25.0095 22.17 24.5083 21.8785 24.0303C21.5191 23.4411 21.0784 23.0998 20.5563 23.0064C20.0308 22.9075 19.4902 23.0275 18.9343 23.3665C18.4063 23.6885 17.9816 24.0924 17.6602 24.5782C17.3409 25.0551 17.0592 25.631 16.8151 26.306L14.9514 25.6696C15.1142 25.1738 15.3145 24.6895 15.5523 24.2166C15.7956 23.7403 16.1139 23.2869 16.5072 22.8564C16.8971 22.4204 17.3977 22.0159 18.0091 21.6431C18.7817 21.1719 19.5335 20.9041 20.2644 20.8396C20.9919 20.7696 21.6548 20.8877 22.2533 21.1938C22.8573 21.4965 23.3576 21.973 23.7542 22.6233C24.1542 23.2792 24.393 23.9647 24.4708 24.6798C24.5485 25.395 24.5117 26.1724 24.3603 27.012C24.2055 27.8461 23.9879 28.7833 23.7073 29.8237L22.8538 33.1695L22.9097 33.2612L28.6793 29.7427L29.7267 31.4602ZM41.3742 24.357L39.0731 25.7603L31.9033 22.5377L31.2976 24.2454L34.0789 28.806L32.0779 30.0263L24.6442 17.8369L26.6452 16.6166L30.1993 22.4445C30.2609 21.9952 30.3252 21.5442 30.3922 21.0915C30.4593 20.6388 30.5264 20.1861 30.5935 19.7335L31.5727 13.6116L33.8321 12.2336L32.534 20.3459L41.3742 24.357ZM42.8701 14.1682L46.2051 12.1344L47.1101 13.6185L43.7751 15.6523L45.8293 19.0207L44.3452 19.9257L42.2911 16.5574L38.9644 18.5861L38.0593 17.1021L41.386 15.0733L39.3115 11.6716L40.7955 10.7665L42.8701 14.1682Z" fill="#D7D7D7"/>
<path d="M30.0682 55.0769C30.3767 55.5827 30.5136 56.0917 30.479 56.6039C30.4459 57.1099 30.2607 57.5938 29.9232 58.0558C29.5858 58.5178 29.1116 58.9351 28.5008 59.3076C28.1778 59.5046 27.8629 59.6753 27.556 59.8197C27.2491 59.9642 26.9573 60.0808 26.6804 60.1696C26.4036 60.2583 26.1477 60.3157 25.9126 60.3416L25.3324 59.3903C25.6978 59.3329 26.1226 59.2286 26.6069 59.0774C27.0888 58.9223 27.5593 58.7048 28.0184 58.4248C28.4464 58.1638 28.7739 57.8867 29.0008 57.5935C29.2253 57.2965 29.3482 56.9947 29.3694 56.6881C29.3921 56.3753 29.311 56.0672 29.1259 55.7637C28.9479 55.4719 28.7354 55.2679 28.4884 55.1516C28.239 55.0315 27.9158 54.983 27.519 55.0062C27.1236 55.0231 26.6134 55.0968 25.9883 55.2271C25.5481 55.3194 25.1436 55.3739 24.7748 55.3906C24.4037 55.4034 24.0654 55.3695 23.76 55.2889C23.4546 55.2082 23.175 55.0692 22.9211 54.8717C22.6711 54.6719 22.4453 54.4066 22.2436 54.0759C21.9659 53.6206 21.8434 53.1615 21.8761 52.6986C21.9102 52.2294 22.0793 51.7846 22.3835 51.3643C22.6891 50.9377 23.1085 50.5618 23.6415 50.2368C24.0967 49.9591 24.543 49.7457 24.9804 49.5964C25.4217 49.4447 25.8477 49.3424 26.2585 49.2894L26.4688 50.3301C26.0831 50.3892 25.691 50.4815 25.2925 50.6071C24.898 50.7303 24.5178 50.9034 24.152 51.1264C23.7863 51.3495 23.5102 51.5926 23.3237 51.8558C23.1388 52.1127 23.0395 52.3788 23.0258 52.654C23.0122 52.9292 23.0872 53.201 23.251 53.4695C23.4337 53.7691 23.6478 53.9801 23.8933 54.1026C24.1427 54.2228 24.453 54.2764 24.8242 54.2636C25.1968 54.2445 25.6638 54.1786 26.2249 54.0659C26.8384 53.9427 27.383 53.8774 27.859 53.8701C28.3325 53.8588 28.7509 53.9453 29.1141 54.1295C29.475 54.3098 29.793 54.6256 30.0682 55.0769ZM34.7051 54.435C34.8646 54.3377 35.0197 54.2245 35.1704 54.0952C35.3211 53.9659 35.4371 53.8498 35.5184 53.7468L35.9776 54.4997C35.8956 54.6191 35.7641 54.758 35.5832 54.9164C35.4061 55.0724 35.2222 55.2086 35.0316 55.3249C34.6931 55.5313 34.3501 55.6604 34.0027 55.7121C33.6528 55.76 33.3077 55.6929 32.9672 55.5109C32.6305 55.3265 32.3092 54.9834 32.0031 54.4815L29.6896 50.6879L28.7791 51.2431L28.4908 50.7704L29.1758 49.8323L28.7139 48.2083L29.2975 47.8524L30.2015 49.3348L32.075 48.1923L32.5377 48.951L30.6642 50.0935L32.9599 53.8579C33.2043 54.2587 33.4785 54.5025 33.7824 54.5894C34.0901 54.6739 34.3977 54.6225 34.7051 54.435ZM35.7403 45.8129C36.5029 45.3478 37.1734 45.1738 37.7518 45.2907C38.3303 45.4077 38.8485 45.8417 39.3064 46.5926L41.958 50.9406L41.2519 51.3713L40.4885 50.5397L40.4418 50.5682C40.4052 50.9108 40.3383 51.2212 40.241 51.4993C40.1414 51.7736 39.9881 52.0299 39.7811 52.2682C39.5757 52.5003 39.2881 52.729 38.9185 52.9544C38.5294 53.1917 38.1416 53.3348 37.7551 53.3837C37.3724 53.4302 37.0093 53.3687 36.6658 53.1993C36.3261 53.0274 36.027 52.7294 35.7683 52.3053C35.3792 51.6672 35.3331 51.0228 35.6301 50.3719C35.9271 49.721 36.5836 49.0645 37.5996 48.4022L38.6742 47.6828L38.4357 47.2918C38.0987 46.7393 37.744 46.4245 37.3714 46.3475C36.9988 46.2704 36.5966 46.3636 36.1647 46.627C35.8301 46.831 35.5407 47.0742 35.2965 47.3566C35.0523 47.6389 34.8344 47.9293 34.6427 48.2277L33.8966 47.6739C34.0944 47.3504 34.348 47.0223 34.6574 46.6894C34.9669 46.3566 35.3278 46.0644 35.7403 45.8129ZM39.0789 48.3727L38.1292 49.008C37.3505 49.5255 36.8678 49.9988 36.681 50.4276C36.4941 50.8565 36.5288 51.2811 36.7851 51.7013C37.0082 52.067 37.284 52.2698 37.6125 52.3096C37.9411 52.3495 38.2882 52.2579 38.654 52.0348C39.222 51.6884 39.5909 51.2473 39.7605 50.7114C39.9302 50.1756 39.8228 49.5925 39.4384 48.9622L39.0789 48.3727ZM45.6072 47.7864C45.7667 47.6891 45.9218 47.5758 46.0725 47.4465C46.2232 47.3173 46.3392 47.2012 46.4206 47.0982L46.8797 47.8511C46.7977 47.9705 46.6662 48.1094 46.4853 48.2678C46.3082 48.4238 46.1243 48.5599 45.9337 48.6762C45.5952 48.8826 45.2522 49.0117 44.9048 49.0635C44.555 49.1113 44.2098 49.0443 43.8693 48.8623C43.5327 48.6779 43.2113 48.3347 42.9052 47.8328L40.5917 44.0393L39.6812 44.5945L39.3929 44.1218L40.0779 43.1836L39.616 41.5597L40.1996 41.2037L41.1037 42.6862L42.9771 41.5436L43.4398 42.3024L41.5664 43.4449L43.8621 47.2093C44.1065 47.61 44.3806 47.8538 44.6845 47.9408C44.9923 48.0253 45.2998 47.9738 45.6072 47.7864ZM49.5954 37.5075L53.4963 43.904L52.7026 44.3881L52.0144 43.5747L51.9619 43.6067C51.9648 43.9092 51.9075 44.2004 51.79 44.4802C51.6724 44.7601 51.5039 45.0177 51.2844 45.253C51.0712 45.4898 50.8167 45.6983 50.521 45.8787C50.0152 46.1871 49.5412 46.364 49.0992 46.4094C48.6571 46.4548 48.2442 46.3597 47.8603 46.1241C47.4803 45.8861 47.1265 45.4987 46.7991 44.9617L44.2436 40.7713L45.2241 40.1733L47.7369 44.2937C48.0619 44.8268 48.4258 45.152 48.8284 45.2695C49.2286 45.3831 49.6757 45.2892 50.1699 44.9878C50.6446 44.6983 50.9674 44.3787 51.1384 44.0289C51.3133 43.6767 51.3574 43.2895 51.2707 42.8673C51.1817 42.4411 50.9829 41.9752 50.6744 41.4694L48.6208 38.1019L49.5954 37.5075ZM54.0357 34.6395C54.5804 34.3073 55.1208 34.1431 55.657 34.1471C56.1932 34.151 56.6973 34.308 57.1693 34.618C57.6389 34.9242 58.0505 35.3671 58.404 35.9468L58.7706 36.548L54.3526 39.2423C54.8222 39.9861 55.3577 40.4442 55.9593 40.6165C56.5608 40.7888 57.1903 40.6744 57.8478 40.2734C58.2525 40.0266 58.5879 39.7714 58.8541 39.5076C59.1203 39.2439 59.3768 38.938 59.6236 38.59L60.1432 39.4421C59.9081 39.783 59.6512 40.0838 59.3724 40.3445C59.0976 40.6028 58.7443 40.8637 58.3124 41.1271C57.6976 41.502 57.0848 41.7049 56.4738 41.7359C55.8643 41.7606 55.2848 41.6069 54.7353 41.2748C54.1858 40.9427 53.6963 40.4245 53.2669 39.7202C52.8469 39.0316 52.5986 38.3663 52.5221 37.7244C52.4471 37.0762 52.5366 36.4878 52.7907 35.9592C53.0487 35.4282 53.4637 34.9883 54.0357 34.6395ZM54.508 35.4403C53.9906 35.7559 53.6813 36.1767 53.5804 36.7026C53.4795 37.2286 53.5849 37.8128 53.8967 38.4554L57.2817 36.391C57.0453 36.0121 56.7809 35.7143 56.4886 35.4975C56.1978 35.2745 55.887 35.1545 55.5563 35.1373C55.2232 35.1163 54.8738 35.2173 54.508 35.4403Z" fill="#D7D7D7"/>
</svg>
